REM DIRINDEX 1\2,1\3,1\4,1\5
REM DIRNAME cjc044,folder01,folder02,folder03,folder04
TITLE ""
FILE "1800_113.mp3" MP3
  TRACK 01 AUDIO
    TITLE "2:cjc044_3209"
    INDEX 01 00:00:00
  TRACK 02 AUDIO
    TITLE "0:"
    INDEX 01 00:01:01
  TRACK 03 AUDIO
    TITLE "3:cjc044_3210"
    INDEX 01 00:01:58
  TRACK 04 AUDIO
    TITLE "0:"
    INDEX 01 00:02:61
  TRACK 05 AUDIO
    TITLE "4:cjc044_3211"
    INDEX 01 00:03:45
  TRACK 06 AUDIO
    TITLE "0:"
    INDEX 01 00:04:56
  TRACK 07 AUDIO
    TITLE "5:cjc044_3212"
    INDEX 01 00:05:32
  TRACK 08 AUDIO
    TITLE "0:"
    INDEX 01 00:08:34
  TRACK 09 AUDIO
    TITLE "2:cjc044_3213"
    INDEX 01 00:10:18
  TRACK 10 AUDIO
    TITLE "0:"
    INDEX 01 00:11:31
  TRACK 11 AUDIO
    TITLE "3:cjc044_3214"
    INDEX 01 00:12:11
  TRACK 12 AUDIO
    TITLE "0:"
    INDEX 01 00:13:26
  TRACK 13 AUDIO
    TITLE "4:cjc044_3215"
    INDEX 01 00:14:04
  TRACK 14 AUDIO
    TITLE "0:"
    INDEX 01 00:15:19
  TRACK 15 AUDIO
    TITLE "5:cjc044_3216"
    INDEX 01 00:15:74
  TRACK 16 AUDIO
    TITLE "0:"
    INDEX 01 00:19:44
  TRACK 17 AUDIO
    TITLE "2:cjc044_3217"
    INDEX 01 00:21:27
  TRACK 18 AUDIO
    TITLE "0:"
    INDEX 01 00:22:50
  TRACK 19 AUDIO
    TITLE "3:cjc044_3218"
    INDEX 01 00:23:30
  TRACK 20 AUDIO
    TITLE "0:"
    INDEX 01 00:24:33
  TRACK 21 AUDIO
    TITLE "4:cjc044_3219"
    INDEX 01 00:25:13
  TRACK 22 AUDIO
    TITLE "0:"
    INDEX 01 00:26:36
  TRACK 23 AUDIO
    TITLE "5:cjc044_3220"
    INDEX 01 00:27:16
  TRACK 24 AUDIO
    TITLE "0:"
    INDEX 01 00:30:12
  TRACK 25 AUDIO
    TITLE "2:cjc044_3221"
    INDEX 01 00:32:01
  TRACK 26 AUDIO
    TITLE "0:"
    INDEX 01 00:33:01
  TRACK 27 AUDIO
    TITLE "3:cjc044_3222"
    INDEX 01 00:33:64
  TRACK 28 AUDIO
    TITLE "0:"
    INDEX 01 00:34:67
  TRACK 29 AUDIO
    TITLE "4:cjc044_3223"
    INDEX 01 00:35:57
  TRACK 30 AUDIO
    TITLE "0:"
    INDEX 01 00:36:62
  TRACK 31 AUDIO
    TITLE "5:cjc044_3224"
    INDEX 01 00:37:44
  TRACK 32 AUDIO
    TITLE "0:"
    INDEX 01 00:40:72
  TRACK 33 AUDIO
    TITLE "2:cjc044_3225"
    INDEX 01 00:42:57
  TRACK 34 AUDIO
    TITLE "0:"
    INDEX 01 00:44:07
  TRACK 35 AUDIO
    TITLE "3:cjc044_3226"
    INDEX 01 00:44:67
  TRACK 36 AUDIO
    TITLE "0:"
    INDEX 01 00:45:65
  TRACK 37 AUDIO
    TITLE "4:cjc044_3227"
    INDEX 01 00:46:53
  TRACK 38 AUDIO
    TITLE "0:"
    INDEX 01 00:48:02
  TRACK 39 AUDIO
    TITLE "5:cjc044_3228"
    INDEX 01 00:48:57
  TRACK 40 AUDIO
    TITLE "0:"
    INDEX 01 00:52:32
  TRACK 41 AUDIO
    TITLE "2:cjc044_3229"
    INDEX 01 00:54:19
  TRACK 42 AUDIO
    TITLE "0:"
    INDEX 01 00:55:22
  TRACK 43 AUDIO
    TITLE "3:cjc044_3230"
    INDEX 01 00:56:04
  TRACK 44 AUDIO
    TITLE "0:"
    INDEX 01 00:56:65
  TRACK 45 AUDIO
    TITLE "4:cjc044_3231"
    INDEX 01 00:57:50
  TRACK 46 AUDIO
    TITLE "0:"
    INDEX 01 00:58:50
  TRACK 47 AUDIO
    TITLE "5:cjc044_3232"
    INDEX 01 00:59:38
  TRACK 48 AUDIO
    TITLE "0:"
    INDEX 01 01:02:44
  TRACK 49 AUDIO
    TITLE "2:cjc044_3233"
    INDEX 01 01:04:27
  TRACK 50 AUDIO
    TITLE "0:"
    INDEX 01 01:05:40
  TRACK 51 AUDIO
    TITLE "3:cjc044_3234"
    INDEX 01 01:06:22
  TRACK 52 AUDIO
    TITLE "0:"
    INDEX 01 01:07:35
  TRACK 53 AUDIO
    TITLE "4:cjc044_3235"
    INDEX 01 01:08:17
  TRACK 54 AUDIO
    TITLE "0:"
    INDEX 01 01:09:30
  TRACK 55 AUDIO
    TITLE "5:cjc044_3236"
    INDEX 01 01:10:14
  TRACK 56 AUDIO
    TITLE "0:"
    INDEX 01 01:13:28
  TRACK 57 AUDIO
    TITLE "2:cjc044_3237"
    INDEX 01 01:15:21
  TRACK 58 AUDIO
    TITLE "0:"
    INDEX 01 01:16:20
  TRACK 59 AUDIO
    TITLE "3:cjc044_3238"
    INDEX 01 01:17:04
  TRACK 60 AUDIO
    TITLE "0:"
    INDEX 01 01:18:09
  TRACK 61 AUDIO
    TITLE "4:cjc044_3239"
    INDEX 01 01:18:68
  TRACK 62 AUDIO
    TITLE "0:"
    INDEX 01 01:19:66
  TRACK 63 AUDIO
    TITLE "5:cjc044_3240"
    INDEX 01 01:20:53
  TRACK 64 AUDIO
    TITLE "0:"
    INDEX 01 01:24:06
  TRACK 65 AUDIO
    TITLE "2:cjc044_3241"
    INDEX 01 01:25:66
  TRACK 66 AUDIO
    TITLE "0:"
    INDEX 01 01:26:68
  TRACK 67 AUDIO
    TITLE "3:cjc044_3242"
    INDEX 01 01:27:51
  TRACK 68 AUDIO
    TITLE "0:"
    INDEX 01 01:29:09
  TRACK 69 AUDIO
    TITLE "4:cjc044_3243"
    INDEX 01 01:29:64
  TRACK 70 AUDIO
    TITLE "0:"
    INDEX 01 01:30:67
  TRACK 71 AUDIO
    TITLE "5:cjc044_3244"
    INDEX 01 01:31:55
  TRACK 72 AUDIO
    TITLE "0:"
    INDEX 01 01:35:47
